<svg t="1641281598483" class="icon" viewBox="0 0 1024 1024" version="1.1" xmlns="http://www.w3.org/2000/svg" p-id="1943" width="200" height="200"><path d="M733.866667 273.066667h136.533333v102.4h-136.533333zM187.733333 682.666667h512v68.266666h-512zM187.733333 870.4c0 10.24 6.826667 17.066667 17.066667 17.066667h477.866667c10.24 0 17.066667-6.826667 17.066666-17.066667V785.066667h-512v85.333333zM733.866667 546.133333H853.333333c10.24 0 17.066667-6.826667 17.066667-17.066666V409.6h-136.533333v136.533333z" fill="" p-id="1944"></path><path d="M955.733333 170.666667c-23.893333 0-40.96 13.653333-47.786666 34.133333h-44.373334c-10.24-30.72-37.546667-54.613333-68.266666-64.853333-3.413333 0-6.826667-3.413333-10.24-3.413334H334.506667c-54.613333 0-98.986667 27.306667-126.293334 68.266667H116.053333c-6.826667-20.48-23.893333-34.133333-47.786666-34.133333-27.306667 0-51.2 23.893333-51.2 51.2S40.96 273.066667 68.266667 273.066667c23.893333 0 40.96-13.653333 47.786666-34.133334h78.506667c-3.413333 13.653333-6.826667 27.306667-6.826667 44.373334V648.533333h512V238.933333c0-6.826667 0-10.24 3.413334-17.066666v-3.413334c0-6.826667 3.413333-10.24 6.826666-13.653333 10.24-20.48 34.133333-34.133333 58.026667-34.133333 10.24 0 17.066667 6.826667 17.066667 17.066666s-6.826667 17.066667-17.066667 17.066667c-20.48 0-34.133333 13.653333-34.133333 34.133333h174.08c6.826667 20.48 27.306667 34.133333 47.786666 34.133334 27.306667 0 51.2-23.893333 51.2-51.2S983.04 170.666667 955.733333 170.666667z" fill="" p-id="1945"></path></svg>
